%FSLAX45Y45*%
G04 Gerber Fmt 4.5, Leading zero omitted, Abs format (unit mm)*
G04 Created by KiCad (PCBNEW 5.1.6) date 2020-09-07 14:06:28*
%MOMM*%
%LPD*%
G01*
G04 APERTURE LIST*
%TA.AperFunction,Profile*%
%ADD10C,0.050000*%
%TD*%
%ADD11C,0.200000*%
%ADD12C,0.300000*%
G04 APERTURE END LIST*
D10*
X7594600Y-7264400D02*
X10401300Y-7264400D01*
X7340600Y-3937000D02*
X7340600Y-7010400D01*
X10668000Y-3683000D02*
X7594600Y-3683000D01*
X10922000Y-7010400D02*
X10922000Y-3937000D01*
X7594600Y-7264400D02*
G75*
G02*
X7340600Y-7010400I0J254000D01*
G01*
X10922000Y-7010400D02*
G75*
G02*
X10668000Y-7264400I-254000J0D01*
G01*
X10401300Y-7264400D02*
X10668000Y-7264400D01*
X10668000Y-3683000D02*
G75*
G02*
X10922000Y-3937000I0J-254000D01*
G01*
X7340600Y-3937000D02*
G75*
G02*
X7594600Y-3683000I254000J0D01*
G01*
D11*
X8672200Y-5052700D02*
X8752200Y-5132700D01*
X8752200Y-5052700D02*
X8672200Y-5132700D01*
X8672200Y-5306700D02*
X8752200Y-5386700D01*
X8752200Y-5306700D02*
X8672200Y-5386700D01*
X8672200Y-5560700D02*
X8752200Y-5640700D01*
X8752200Y-5560700D02*
X8672200Y-5640700D01*
X8672200Y-5814700D02*
X8752200Y-5894700D01*
X8752200Y-5814700D02*
X8672200Y-5894700D01*
X9434200Y-5052700D02*
X9514200Y-5132700D01*
X9514200Y-5052700D02*
X9434200Y-5132700D01*
X9434200Y-5306700D02*
X9514200Y-5386700D01*
X9514200Y-5306700D02*
X9434200Y-5386700D01*
X9434200Y-5560700D02*
X9514200Y-5640700D01*
X9514200Y-5560700D02*
X9434200Y-5640700D01*
X9434200Y-5814700D02*
X9514200Y-5894700D01*
X9514200Y-5814700D02*
X9434200Y-5894700D01*
X10324300Y-4965700D02*
G75*
G03*
X10324300Y-4965700I-50000J0D01*
G01*
X10324300Y-5219700D02*
G75*
G03*
X10324300Y-5219700I-50000J0D01*
G01*
X10324300Y-5473700D02*
G75*
G03*
X10324300Y-5473700I-50000J0D01*
G01*
X10324300Y-5727700D02*
G75*
G03*
X10324300Y-5727700I-50000J0D01*
G01*
X10324300Y-5981700D02*
G75*
G03*
X10324300Y-5981700I-50000J0D01*
G01*
X10578300Y-4965700D02*
G75*
G03*
X10578300Y-4965700I-50000J0D01*
G01*
X10578300Y-5219700D02*
G75*
G03*
X10578300Y-5219700I-50000J0D01*
G01*
X10578300Y-5473700D02*
G75*
G03*
X10578300Y-5473700I-50000J0D01*
G01*
X10578300Y-5727700D02*
G75*
G03*
X10578300Y-5727700I-50000J0D01*
G01*
X10578300Y-5981700D02*
G75*
G03*
X10578300Y-5981700I-50000J0D01*
G01*
X8470100Y-3898900D02*
G75*
G03*
X8470100Y-3898900I-50000J0D01*
G01*
X8724100Y-3898900D02*
G75*
G03*
X8724100Y-3898900I-50000J0D01*
G01*
X8978100Y-3898900D02*
G75*
G03*
X8978100Y-3898900I-50000J0D01*
G01*
X9232100Y-3898900D02*
G75*
G03*
X9232100Y-3898900I-50000J0D01*
G01*
X9486100Y-3898900D02*
G75*
G03*
X9486100Y-3898900I-50000J0D01*
G01*
X9740100Y-3898900D02*
G75*
G03*
X9740100Y-3898900I-50000J0D01*
G01*
D12*
X7624528Y-7732614D02*
X7624528Y-7432614D01*
X7695957Y-7432614D01*
X7738814Y-7446900D01*
X7767386Y-7475471D01*
X7781671Y-7504043D01*
X7795957Y-7561186D01*
X7795957Y-7604043D01*
X7781671Y-7661186D01*
X7767386Y-7689757D01*
X7738814Y-7718329D01*
X7695957Y-7732614D01*
X7624528Y-7732614D01*
X7924528Y-7732614D02*
X7924528Y-7532614D01*
X7924528Y-7589757D02*
X7938814Y-7561186D01*
X7953100Y-7546900D01*
X7981671Y-7532614D01*
X8010243Y-7532614D01*
X8110243Y-7732614D02*
X8110243Y-7532614D01*
X8110243Y-7432614D02*
X8095957Y-7446900D01*
X8110243Y-7461186D01*
X8124528Y-7446900D01*
X8110243Y-7432614D01*
X8110243Y-7461186D01*
X8295957Y-7732614D02*
X8267386Y-7718329D01*
X8253100Y-7689757D01*
X8253100Y-7432614D01*
X8453100Y-7732614D02*
X8424528Y-7718329D01*
X8410243Y-7689757D01*
X8410243Y-7432614D01*
X8795957Y-7732614D02*
X8795957Y-7432614D01*
X8895957Y-7646900D01*
X8995957Y-7432614D01*
X8995957Y-7732614D01*
X9267386Y-7732614D02*
X9267386Y-7575471D01*
X9253100Y-7546900D01*
X9224528Y-7532614D01*
X9167386Y-7532614D01*
X9138814Y-7546900D01*
X9267386Y-7718329D02*
X9238814Y-7732614D01*
X9167386Y-7732614D01*
X9138814Y-7718329D01*
X9124528Y-7689757D01*
X9124528Y-7661186D01*
X9138814Y-7632614D01*
X9167386Y-7618329D01*
X9238814Y-7618329D01*
X9267386Y-7604043D01*
X9410243Y-7532614D02*
X9410243Y-7832614D01*
X9410243Y-7546900D02*
X9438814Y-7532614D01*
X9495957Y-7532614D01*
X9524528Y-7546900D01*
X9538814Y-7561186D01*
X9553100Y-7589757D01*
X9553100Y-7675471D01*
X9538814Y-7704043D01*
X9524528Y-7718329D01*
X9495957Y-7732614D01*
X9438814Y-7732614D01*
X9410243Y-7718329D01*
X9681671Y-7704043D02*
X9695957Y-7718329D01*
X9681671Y-7732614D01*
X9667386Y-7718329D01*
X9681671Y-7704043D01*
X9681671Y-7732614D01*
X9681671Y-7546900D02*
X9695957Y-7561186D01*
X9681671Y-7575471D01*
X9667386Y-7561186D01*
X9681671Y-7546900D01*
X9681671Y-7575471D01*
X7258100Y-8186900D02*
X7338100Y-8266900D01*
X7338100Y-8186900D02*
X7258100Y-8266900D01*
X7681671Y-8062614D02*
X7710243Y-8062614D01*
X7738814Y-8076900D01*
X7753100Y-8091186D01*
X7767386Y-8119757D01*
X7781671Y-8176900D01*
X7781671Y-8248329D01*
X7767386Y-8305471D01*
X7753100Y-8334043D01*
X7738814Y-8348329D01*
X7710243Y-8362614D01*
X7681671Y-8362614D01*
X7653100Y-8348329D01*
X7638814Y-8334043D01*
X7624528Y-8305471D01*
X7610243Y-8248329D01*
X7610243Y-8176900D01*
X7624528Y-8119757D01*
X7638814Y-8091186D01*
X7653100Y-8076900D01*
X7681671Y-8062614D01*
X7910243Y-8334043D02*
X7924528Y-8348329D01*
X7910243Y-8362614D01*
X7895957Y-8348329D01*
X7910243Y-8334043D01*
X7910243Y-8362614D01*
X8095957Y-8191186D02*
X8067386Y-8176900D01*
X8053100Y-8162614D01*
X8038814Y-8134043D01*
X8038814Y-8119757D01*
X8053100Y-8091186D01*
X8067386Y-8076900D01*
X8095957Y-8062614D01*
X8153100Y-8062614D01*
X8181671Y-8076900D01*
X8195957Y-8091186D01*
X8210243Y-8119757D01*
X8210243Y-8134043D01*
X8195957Y-8162614D01*
X8181671Y-8176900D01*
X8153100Y-8191186D01*
X8095957Y-8191186D01*
X8067386Y-8205471D01*
X8053100Y-8219757D01*
X8038814Y-8248329D01*
X8038814Y-8305471D01*
X8053100Y-8334043D01*
X8067386Y-8348329D01*
X8095957Y-8362614D01*
X8153100Y-8362614D01*
X8181671Y-8348329D01*
X8195957Y-8334043D01*
X8210243Y-8305471D01*
X8210243Y-8248329D01*
X8195957Y-8219757D01*
X8181671Y-8205471D01*
X8153100Y-8191186D01*
X8395957Y-8062614D02*
X8424528Y-8062614D01*
X8453100Y-8076900D01*
X8467386Y-8091186D01*
X8481671Y-8119757D01*
X8495957Y-8176900D01*
X8495957Y-8248329D01*
X8481671Y-8305471D01*
X8467386Y-8334043D01*
X8453100Y-8348329D01*
X8424528Y-8362614D01*
X8395957Y-8362614D01*
X8367386Y-8348329D01*
X8353100Y-8334043D01*
X8338814Y-8305471D01*
X8324528Y-8248329D01*
X8324528Y-8176900D01*
X8338814Y-8119757D01*
X8353100Y-8091186D01*
X8367386Y-8076900D01*
X8395957Y-8062614D01*
X8624528Y-8362614D02*
X8624528Y-8162614D01*
X8624528Y-8191186D02*
X8638814Y-8176900D01*
X8667386Y-8162614D01*
X8710243Y-8162614D01*
X8738814Y-8176900D01*
X8753100Y-8205471D01*
X8753100Y-8362614D01*
X8753100Y-8205471D02*
X8767386Y-8176900D01*
X8795957Y-8162614D01*
X8838814Y-8162614D01*
X8867386Y-8176900D01*
X8881671Y-8205471D01*
X8881671Y-8362614D01*
X9024528Y-8362614D02*
X9024528Y-8162614D01*
X9024528Y-8191186D02*
X9038814Y-8176900D01*
X9067386Y-8162614D01*
X9110243Y-8162614D01*
X9138814Y-8176900D01*
X9153100Y-8205471D01*
X9153100Y-8362614D01*
X9153100Y-8205471D02*
X9167386Y-8176900D01*
X9195957Y-8162614D01*
X9238814Y-8162614D01*
X9267386Y-8176900D01*
X9281671Y-8205471D01*
X9281671Y-8362614D01*
X9867386Y-8048329D02*
X9610243Y-8434043D01*
X10253100Y-8062614D02*
X10281671Y-8062614D01*
X10310243Y-8076900D01*
X10324528Y-8091186D01*
X10338814Y-8119757D01*
X10353100Y-8176900D01*
X10353100Y-8248329D01*
X10338814Y-8305471D01*
X10324528Y-8334043D01*
X10310243Y-8348329D01*
X10281671Y-8362614D01*
X10253100Y-8362614D01*
X10224528Y-8348329D01*
X10210243Y-8334043D01*
X10195957Y-8305471D01*
X10181671Y-8248329D01*
X10181671Y-8176900D01*
X10195957Y-8119757D01*
X10210243Y-8091186D01*
X10224528Y-8076900D01*
X10253100Y-8062614D01*
X10481671Y-8334043D02*
X10495957Y-8348329D01*
X10481671Y-8362614D01*
X10467386Y-8348329D01*
X10481671Y-8334043D01*
X10481671Y-8362614D01*
X10681671Y-8062614D02*
X10710243Y-8062614D01*
X10738814Y-8076900D01*
X10753100Y-8091186D01*
X10767386Y-8119757D01*
X10781671Y-8176900D01*
X10781671Y-8248329D01*
X10767386Y-8305471D01*
X10753100Y-8334043D01*
X10738814Y-8348329D01*
X10710243Y-8362614D01*
X10681671Y-8362614D01*
X10653100Y-8348329D01*
X10638814Y-8334043D01*
X10624528Y-8305471D01*
X10610243Y-8248329D01*
X10610243Y-8176900D01*
X10624528Y-8119757D01*
X10638814Y-8091186D01*
X10653100Y-8076900D01*
X10681671Y-8062614D01*
X10881671Y-8062614D02*
X11067386Y-8062614D01*
X10967386Y-8176900D01*
X11010243Y-8176900D01*
X11038814Y-8191186D01*
X11053100Y-8205471D01*
X11067386Y-8234043D01*
X11067386Y-8305471D01*
X11053100Y-8334043D01*
X11038814Y-8348329D01*
X11010243Y-8362614D01*
X10924528Y-8362614D01*
X10895957Y-8348329D01*
X10881671Y-8334043D01*
X11353100Y-8362614D02*
X11181671Y-8362614D01*
X11267386Y-8362614D02*
X11267386Y-8062614D01*
X11238814Y-8105471D01*
X11210243Y-8134043D01*
X11181671Y-8148329D01*
X11467386Y-8062614D02*
X11467386Y-8119757D01*
X11581671Y-8062614D02*
X11581671Y-8119757D01*
X12024528Y-8476900D02*
X12010243Y-8462614D01*
X11981671Y-8419757D01*
X11967386Y-8391186D01*
X11953100Y-8348329D01*
X11938814Y-8276900D01*
X11938814Y-8219757D01*
X11953100Y-8148329D01*
X11967386Y-8105471D01*
X11981671Y-8076900D01*
X12010243Y-8034043D01*
X12024528Y-8019757D01*
X12181671Y-8191186D02*
X12153100Y-8176900D01*
X12138814Y-8162614D01*
X12124528Y-8134043D01*
X12124528Y-8119757D01*
X12138814Y-8091186D01*
X12153100Y-8076900D01*
X12181671Y-8062614D01*
X12238814Y-8062614D01*
X12267386Y-8076900D01*
X12281671Y-8091186D01*
X12295957Y-8119757D01*
X12295957Y-8134043D01*
X12281671Y-8162614D01*
X12267386Y-8176900D01*
X12238814Y-8191186D01*
X12181671Y-8191186D01*
X12153100Y-8205471D01*
X12138814Y-8219757D01*
X12124528Y-8248329D01*
X12124528Y-8305471D01*
X12138814Y-8334043D01*
X12153100Y-8348329D01*
X12181671Y-8362614D01*
X12238814Y-8362614D01*
X12267386Y-8348329D01*
X12281671Y-8334043D01*
X12295957Y-8305471D01*
X12295957Y-8248329D01*
X12281671Y-8219757D01*
X12267386Y-8205471D01*
X12238814Y-8191186D01*
X12653100Y-8362614D02*
X12653100Y-8062614D01*
X12781671Y-8362614D02*
X12781671Y-8205471D01*
X12767386Y-8176900D01*
X12738814Y-8162614D01*
X12695957Y-8162614D01*
X12667386Y-8176900D01*
X12653100Y-8191186D01*
X12967386Y-8362614D02*
X12938814Y-8348329D01*
X12924528Y-8334043D01*
X12910243Y-8305471D01*
X12910243Y-8219757D01*
X12924528Y-8191186D01*
X12938814Y-8176900D01*
X12967386Y-8162614D01*
X13010243Y-8162614D01*
X13038814Y-8176900D01*
X13053100Y-8191186D01*
X13067386Y-8219757D01*
X13067386Y-8305471D01*
X13053100Y-8334043D01*
X13038814Y-8348329D01*
X13010243Y-8362614D01*
X12967386Y-8362614D01*
X13238814Y-8362614D02*
X13210243Y-8348329D01*
X13195957Y-8319757D01*
X13195957Y-8062614D01*
X13467386Y-8348329D02*
X13438814Y-8362614D01*
X13381671Y-8362614D01*
X13353100Y-8348329D01*
X13338814Y-8319757D01*
X13338814Y-8205471D01*
X13353100Y-8176900D01*
X13381671Y-8162614D01*
X13438814Y-8162614D01*
X13467386Y-8176900D01*
X13481671Y-8205471D01*
X13481671Y-8234043D01*
X13338814Y-8262614D01*
X13595957Y-8348329D02*
X13624528Y-8362614D01*
X13681671Y-8362614D01*
X13710243Y-8348329D01*
X13724528Y-8319757D01*
X13724528Y-8305471D01*
X13710243Y-8276900D01*
X13681671Y-8262614D01*
X13638814Y-8262614D01*
X13610243Y-8248329D01*
X13595957Y-8219757D01*
X13595957Y-8205471D01*
X13610243Y-8176900D01*
X13638814Y-8162614D01*
X13681671Y-8162614D01*
X13710243Y-8176900D01*
X13824528Y-8476900D02*
X13838814Y-8462614D01*
X13867386Y-8419757D01*
X13881671Y-8391186D01*
X13895957Y-8348329D01*
X13910243Y-8276900D01*
X13910243Y-8219757D01*
X13895957Y-8148329D01*
X13881671Y-8105471D01*
X13867386Y-8076900D01*
X13838814Y-8034043D01*
X13824528Y-8019757D01*
X7338100Y-8622900D02*
G75*
G03*
X7338100Y-8622900I-50000J0D01*
G01*
X7781671Y-8758614D02*
X7610243Y-8758614D01*
X7695957Y-8758614D02*
X7695957Y-8458614D01*
X7667386Y-8501472D01*
X7638814Y-8530043D01*
X7610243Y-8544329D01*
X7910243Y-8730043D02*
X7924528Y-8744329D01*
X7910243Y-8758614D01*
X7895957Y-8744329D01*
X7910243Y-8730043D01*
X7910243Y-8758614D01*
X8110243Y-8458614D02*
X8138814Y-8458614D01*
X8167386Y-8472900D01*
X8181671Y-8487186D01*
X8195957Y-8515757D01*
X8210243Y-8572900D01*
X8210243Y-8644329D01*
X8195957Y-8701472D01*
X8181671Y-8730043D01*
X8167386Y-8744329D01*
X8138814Y-8758614D01*
X8110243Y-8758614D01*
X8081671Y-8744329D01*
X8067386Y-8730043D01*
X8053100Y-8701472D01*
X8038814Y-8644329D01*
X8038814Y-8572900D01*
X8053100Y-8515757D01*
X8067386Y-8487186D01*
X8081671Y-8472900D01*
X8110243Y-8458614D01*
X8395957Y-8458614D02*
X8424528Y-8458614D01*
X8453100Y-8472900D01*
X8467386Y-8487186D01*
X8481671Y-8515757D01*
X8495957Y-8572900D01*
X8495957Y-8644329D01*
X8481671Y-8701472D01*
X8467386Y-8730043D01*
X8453100Y-8744329D01*
X8424528Y-8758614D01*
X8395957Y-8758614D01*
X8367386Y-8744329D01*
X8353100Y-8730043D01*
X8338814Y-8701472D01*
X8324528Y-8644329D01*
X8324528Y-8572900D01*
X8338814Y-8515757D01*
X8353100Y-8487186D01*
X8367386Y-8472900D01*
X8395957Y-8458614D01*
X8624528Y-8758614D02*
X8624528Y-8558614D01*
X8624528Y-8587186D02*
X8638814Y-8572900D01*
X8667386Y-8558614D01*
X8710243Y-8558614D01*
X8738814Y-8572900D01*
X8753100Y-8601472D01*
X8753100Y-8758614D01*
X8753100Y-8601472D02*
X8767386Y-8572900D01*
X8795957Y-8558614D01*
X8838814Y-8558614D01*
X8867386Y-8572900D01*
X8881671Y-8601472D01*
X8881671Y-8758614D01*
X9024528Y-8758614D02*
X9024528Y-8558614D01*
X9024528Y-8587186D02*
X9038814Y-8572900D01*
X9067386Y-8558614D01*
X9110243Y-8558614D01*
X9138814Y-8572900D01*
X9153100Y-8601472D01*
X9153100Y-8758614D01*
X9153100Y-8601472D02*
X9167386Y-8572900D01*
X9195957Y-8558614D01*
X9238814Y-8558614D01*
X9267386Y-8572900D01*
X9281671Y-8601472D01*
X9281671Y-8758614D01*
X9867386Y-8444329D02*
X9610243Y-8830043D01*
X10253100Y-8458614D02*
X10281671Y-8458614D01*
X10310243Y-8472900D01*
X10324528Y-8487186D01*
X10338814Y-8515757D01*
X10353100Y-8572900D01*
X10353100Y-8644329D01*
X10338814Y-8701472D01*
X10324528Y-8730043D01*
X10310243Y-8744329D01*
X10281671Y-8758614D01*
X10253100Y-8758614D01*
X10224528Y-8744329D01*
X10210243Y-8730043D01*
X10195957Y-8701472D01*
X10181671Y-8644329D01*
X10181671Y-8572900D01*
X10195957Y-8515757D01*
X10210243Y-8487186D01*
X10224528Y-8472900D01*
X10253100Y-8458614D01*
X10481671Y-8730043D02*
X10495957Y-8744329D01*
X10481671Y-8758614D01*
X10467386Y-8744329D01*
X10481671Y-8730043D01*
X10481671Y-8758614D01*
X10681671Y-8458614D02*
X10710243Y-8458614D01*
X10738814Y-8472900D01*
X10753100Y-8487186D01*
X10767386Y-8515757D01*
X10781671Y-8572900D01*
X10781671Y-8644329D01*
X10767386Y-8701472D01*
X10753100Y-8730043D01*
X10738814Y-8744329D01*
X10710243Y-8758614D01*
X10681671Y-8758614D01*
X10653100Y-8744329D01*
X10638814Y-8730043D01*
X10624528Y-8701472D01*
X10610243Y-8644329D01*
X10610243Y-8572900D01*
X10624528Y-8515757D01*
X10638814Y-8487186D01*
X10653100Y-8472900D01*
X10681671Y-8458614D01*
X10881671Y-8458614D02*
X11067386Y-8458614D01*
X10967386Y-8572900D01*
X11010243Y-8572900D01*
X11038814Y-8587186D01*
X11053100Y-8601472D01*
X11067386Y-8630043D01*
X11067386Y-8701472D01*
X11053100Y-8730043D01*
X11038814Y-8744329D01*
X11010243Y-8758614D01*
X10924528Y-8758614D01*
X10895957Y-8744329D01*
X10881671Y-8730043D01*
X11210243Y-8758614D02*
X11267386Y-8758614D01*
X11295957Y-8744329D01*
X11310243Y-8730043D01*
X11338814Y-8687186D01*
X11353100Y-8630043D01*
X11353100Y-8515757D01*
X11338814Y-8487186D01*
X11324528Y-8472900D01*
X11295957Y-8458614D01*
X11238814Y-8458614D01*
X11210243Y-8472900D01*
X11195957Y-8487186D01*
X11181671Y-8515757D01*
X11181671Y-8587186D01*
X11195957Y-8615757D01*
X11210243Y-8630043D01*
X11238814Y-8644329D01*
X11295957Y-8644329D01*
X11324528Y-8630043D01*
X11338814Y-8615757D01*
X11353100Y-8587186D01*
X11467386Y-8458614D02*
X11467386Y-8515757D01*
X11581671Y-8458614D02*
X11581671Y-8515757D01*
X12024528Y-8872900D02*
X12010243Y-8858614D01*
X11981671Y-8815757D01*
X11967386Y-8787186D01*
X11953100Y-8744329D01*
X11938814Y-8672900D01*
X11938814Y-8615757D01*
X11953100Y-8544329D01*
X11967386Y-8501472D01*
X11981671Y-8472900D01*
X12010243Y-8430043D01*
X12024528Y-8415757D01*
X12295957Y-8758614D02*
X12124528Y-8758614D01*
X12210243Y-8758614D02*
X12210243Y-8458614D01*
X12181671Y-8501472D01*
X12153100Y-8530043D01*
X12124528Y-8544329D01*
X12553100Y-8458614D02*
X12495957Y-8458614D01*
X12467386Y-8472900D01*
X12453100Y-8487186D01*
X12424528Y-8530043D01*
X12410243Y-8587186D01*
X12410243Y-8701472D01*
X12424528Y-8730043D01*
X12438814Y-8744329D01*
X12467386Y-8758614D01*
X12524528Y-8758614D01*
X12553100Y-8744329D01*
X12567386Y-8730043D01*
X12581671Y-8701472D01*
X12581671Y-8630043D01*
X12567386Y-8601472D01*
X12553100Y-8587186D01*
X12524528Y-8572900D01*
X12467386Y-8572900D01*
X12438814Y-8587186D01*
X12424528Y-8601472D01*
X12410243Y-8630043D01*
X12938814Y-8758614D02*
X12938814Y-8458614D01*
X13067386Y-8758614D02*
X13067386Y-8601472D01*
X13053100Y-8572900D01*
X13024528Y-8558614D01*
X12981671Y-8558614D01*
X12953100Y-8572900D01*
X12938814Y-8587186D01*
X13253100Y-8758614D02*
X13224528Y-8744329D01*
X13210243Y-8730043D01*
X13195957Y-8701472D01*
X13195957Y-8615757D01*
X13210243Y-8587186D01*
X13224528Y-8572900D01*
X13253100Y-8558614D01*
X13295957Y-8558614D01*
X13324528Y-8572900D01*
X13338814Y-8587186D01*
X13353100Y-8615757D01*
X13353100Y-8701472D01*
X13338814Y-8730043D01*
X13324528Y-8744329D01*
X13295957Y-8758614D01*
X13253100Y-8758614D01*
X13524528Y-8758614D02*
X13495957Y-8744329D01*
X13481671Y-8715757D01*
X13481671Y-8458614D01*
X13753100Y-8744329D02*
X13724528Y-8758614D01*
X13667386Y-8758614D01*
X13638814Y-8744329D01*
X13624528Y-8715757D01*
X13624528Y-8601472D01*
X13638814Y-8572900D01*
X13667386Y-8558614D01*
X13724528Y-8558614D01*
X13753100Y-8572900D01*
X13767386Y-8601472D01*
X13767386Y-8630043D01*
X13624528Y-8658614D01*
X13881671Y-8744329D02*
X13910243Y-8758614D01*
X13967386Y-8758614D01*
X13995957Y-8744329D01*
X14010243Y-8715757D01*
X14010243Y-8701472D01*
X13995957Y-8672900D01*
X13967386Y-8658614D01*
X13924528Y-8658614D01*
X13895957Y-8644329D01*
X13881671Y-8615757D01*
X13881671Y-8601472D01*
X13895957Y-8572900D01*
X13924528Y-8558614D01*
X13967386Y-8558614D01*
X13995957Y-8572900D01*
X14110243Y-8872900D02*
X14124528Y-8858614D01*
X14153100Y-8815757D01*
X14167386Y-8787186D01*
X14181671Y-8744329D01*
X14195957Y-8672900D01*
X14195957Y-8615757D01*
X14181671Y-8544329D01*
X14167386Y-8501472D01*
X14153100Y-8472900D01*
X14124528Y-8430043D01*
X14110243Y-8415757D01*
M02*
